<svg width="94" height="36" viewBox="0 0 94 36" fill="none" xmlns="http://www.w3.org/2000/svg">
    <path d="M20.625 4C23.0412 4 25 5.95875 25 8.375L25 29C25 30.1046 24.1046 31 23 31L18 31L18 6.625C18 5.17525 19.1753 4 20.625 4Z" fill="#FF670E"/>
    <path d="M15 4C15.5523 4 16 4.44772 16 5L16 16.75C16 19.6495 13.6495 22 10.75 22C9.7835 22 9 21.2165 9 20.25L9 4L15 4Z" fill="#FF670E"/>
    <path d="M16 10L6 10C2.68629 10 2.34843e-07 7.31371 5.24537e-07 4L15 4C15.5523 4 16 4.44772 16 5L16 10Z" fill="#FF670E"/>
    <path d="M35.69 19H33.458V5.842H35.69L39.938 16.318L44.186 5.842H46.454V19H44.222V14.95C44.222 12.304 44.222 11.53 44.348 10.594L41 19H38.876L35.546 10.612C35.672 11.404 35.69 12.646 35.69 14.284V19ZM48.5202 14.536C48.5202 11.764 50.5182 9.856 53.2722 9.856C56.0262 9.856 58.0242 11.764 58.0242 14.536C58.0242 17.308 56.0262 19.216 53.2722 19.216C50.5182 19.216 48.5202 17.308 48.5202 14.536ZM50.7162 14.536C50.7162 16.156 51.7602 17.254 53.2722 17.254C54.7842 17.254 55.8282 16.156 55.8282 14.536C55.8282 12.916 54.7842 11.818 53.2722 11.818C51.7602 11.818 50.7162 12.916 50.7162 14.536ZM61.7989 19H59.7649V5.608H61.9609V11.404C62.5369 10.414 63.7249 9.82 65.0749 9.82C67.6129 9.82 69.1609 11.8 69.1609 14.608C69.1609 17.344 67.4869 19.234 64.9309 19.234C63.5989 19.234 62.4649 18.64 61.9429 17.614L61.7989 19ZM61.9789 14.518C61.9789 16.12 62.9689 17.218 64.4809 17.218C66.0289 17.218 66.9469 16.102 66.9469 14.518C66.9469 12.934 66.0289 11.8 64.4809 11.8C62.9689 11.8 61.9789 12.916 61.9789 14.518ZM72.0074 8.326C71.2514 8.326 70.6574 7.732 70.6574 6.994C70.6574 6.256 71.2514 5.68 72.0074 5.68C72.7274 5.68 73.3214 6.256 73.3214 6.994C73.3214 7.732 72.7274 8.326 72.0074 8.326ZM70.9094 19V10.108H73.1054V19H70.9094ZM77.5882 19H75.4102V5.608H77.5882V19ZM82.0878 19H79.8918V10.108H81.9258L82.1058 11.26C82.6638 10.36 83.7438 9.838 84.9498 9.838C87.1818 9.838 88.3338 11.224 88.3338 13.528V19H86.1378V14.05C86.1378 12.556 85.3998 11.836 84.2658 11.836C82.9158 11.836 82.0878 12.772 82.0878 14.212V19ZM91.5894 8.326C90.8334 8.326 90.2394 7.732 90.2394 6.994C90.2394 6.256 90.8334 5.68 91.5894 5.68C92.3094 5.68 92.9034 6.256 92.9034 6.994C92.9034 7.732 92.3094 8.326 91.5894 8.326ZM90.4914 19V10.108H92.6874V19H90.4914Z" fill="#151516"/>
    <path d="M37.296 29H34.08V20.48H37.08C38.7 20.48 39.696 21.296 39.696 22.64C39.696 23.66 39.252 24.332 38.34 24.692C39.372 25.04 39.888 25.736 39.888 26.792C39.888 28.124 38.856 29 37.296 29ZM37.116 21.008H34.656V24.464H37.248C38.424 24.464 39.108 23.804 39.108 22.688C39.108 21.632 38.376 21.008 37.116 21.008ZM37.332 24.992H34.656V28.472H37.332C38.568 28.472 39.3 27.812 39.3 26.72C39.3 25.652 38.556 24.992 37.332 24.992ZM42.9737 29.144C41.7377 29.144 41.0297 28.46 41.0297 27.476C41.0297 26.42 41.8457 25.748 43.1897 25.64L45.1697 25.484V25.268C45.1697 23.972 44.4017 23.6 43.4897 23.6C42.4217 23.6 41.7857 24.104 41.7857 24.944H41.2337C41.2337 23.816 42.1457 23.096 43.5017 23.096C44.7377 23.096 45.7217 23.696 45.7217 25.184V29H45.2777L45.1697 27.92C44.7737 28.7 43.9697 29.144 42.9737 29.144ZM43.0457 28.652C44.4017 28.652 45.1697 27.668 45.1697 26.252V25.94L43.2377 26.096C42.0737 26.192 41.5817 26.756 41.5817 27.464C41.5817 28.256 42.1817 28.652 43.0457 28.652ZM50.2186 23.156V23.636H49.7866C48.7186 23.636 48.0226 24.416 48.0226 25.496V29H47.4706V23.24H47.9866L48.0346 24.164C48.2626 23.516 48.8986 23.096 49.7146 23.096C49.8946 23.096 50.0266 23.108 50.2186 23.156ZM51.9249 29H51.3729V23.24H51.8169L51.9009 24.128C52.2009 23.468 52.8609 23.096 53.6649 23.096C54.5889 23.096 55.2969 23.6 55.5489 24.392C55.8009 23.6 56.4969 23.096 57.4569 23.096C58.6449 23.096 59.4969 23.888 59.4969 25.232V29H58.9689V25.304C58.9689 24.248 58.3689 23.6 57.4089 23.6C56.3169 23.6 55.7169 24.452 55.7169 25.316V29H55.1769V25.292C55.1769 24.236 54.5769 23.6 53.6169 23.6C52.5249 23.6 51.9249 24.44 51.9249 25.304V29ZM62.8838 29.144C61.6478 29.144 60.9398 28.46 60.9398 27.476C60.9398 26.42 61.7558 25.748 63.0998 25.64L65.0798 25.484V25.268C65.0798 23.972 64.3118 23.6 63.3998 23.6C62.3318 23.6 61.6958 24.104 61.6958 24.944H61.1438C61.1438 23.816 62.0558 23.096 63.4118 23.096C64.6478 23.096 65.6318 23.696 65.6318 25.184V29H65.1878L65.0798 27.92C64.6838 28.7 63.8798 29.144 62.8838 29.144ZM62.9558 28.652C64.3118 28.652 65.0798 27.668 65.0798 26.252V25.94L63.1478 26.096C61.9838 26.192 61.4918 26.756 61.4918 27.464C61.4918 28.256 62.0918 28.652 62.9558 28.652ZM67.9328 29H67.3808V23.24H67.8248L67.9448 24.356C68.3288 23.552 69.1208 23.096 69.9848 23.096C71.6168 23.096 72.2288 24.056 72.2288 25.496V29H71.6768V25.604C71.6768 24.08 71.0168 23.6 69.9728 23.6C68.6648 23.6 67.9328 24.572 67.9328 26.024V29ZM74.2544 21.476C73.9784 21.476 73.7504 21.248 73.7504 20.984C73.7504 20.708 73.9784 20.468 74.2544 20.468C74.5184 20.468 74.7584 20.708 74.7584 20.984C74.7584 21.248 74.5184 21.476 74.2544 21.476ZM73.9784 29V23.24H74.5304V29H73.9784Z" fill="#151516"/>
</svg>
