<svg width="26" height="26" viewBox="0 0 26 26" fill="none" xmlns="http://www.w3.org/2000/svg">
    <path fill-rule="evenodd" clip-rule="evenodd" d="M21.9019 0H17.6769C15.9144 0 14.5019 1.495 14.5019 3.32929V7.76099C14.5019 9.60698 15.9144 11.089 17.6769 11.089H21.9019C23.6519 11.089 25.0769 9.60698 25.0769 7.76099V3.32929C25.0769 1.495 23.6519 0 21.9019 0ZM3.2519 0.000199197H7.47689C9.23939 0.000199197 10.6519 1.4952 10.6519 3.32949V7.76118C10.6519 9.60718 9.23939 11.0892 7.47689 11.0892H3.2519C1.5019 11.0892 0.0769043 9.60718 0.0769043 7.76118V3.32949C0.0769043 1.4952 1.5019 0.000199197 3.2519 0.000199197ZM3.2519 14.9106H7.47689C9.23939 14.9106 10.6519 16.3939 10.6519 18.2399V22.6716C10.6519 24.5046 9.23939 25.9996 7.47689 25.9996H3.2519C1.5019 25.9996 0.0769043 24.5046 0.0769043 22.6716V18.2399C0.0769043 16.3939 1.5019 14.9106 3.2519 14.9106ZM17.6769 14.9106H21.9019C23.6519 14.9106 25.0769 16.3939 25.0769 18.2399V22.6716C25.0769 24.5046 23.6519 25.9996 21.9019 25.9996H17.6769C15.9144 25.9996 14.5019 24.5046 14.5019 22.6716V18.2399C14.5019 16.3939 15.9144 14.9106 17.6769 14.9106Z" fill="#FF670E"/>
</svg>
